#N canvas 37 39 1366 725 10;
#X obj 56 128 pack 0 0 0, f 11;
#X obj 56 75 inlet;
#X obj 55 202 voice \$1;
#X obj 77 230 voice \$1;
#X obj 101 256 voice \$1;
#X obj 77 377 +~;
#X obj 77 494 outlet~;
#X obj 170 408 / 100;
#X obj 56 154 route 1 2 3, f 22;
#X obj 56 105 poly 3 1, f 11;
#X obj 77 408 crusty_dac \$1;
#X obj 77 449 *~, f 4;
#X obj 219 360 r slatra_volume-\$1;
#X obj 209 102 bang;
#X connect 0 0 8 0;
#X connect 1 0 9 0;
#X connect 1 0 13 0;
#X connect 2 0 5 0;
#X connect 3 0 5 0;
#X connect 4 0 5 0;
#X connect 5 0 10 0;
#X connect 7 0 11 1;
#X connect 8 0 2 0;
#X connect 8 1 3 0;
#X connect 8 2 4 0;
#X connect 9 0 0 0;
#X connect 9 1 0 1;
#X connect 9 2 0 2;
#X connect 10 0 11 0;
#X connect 11 0 6 0;
#X connect 12 0 7 0;
#X connect 13 0 7 0;
