#N canvas 283 76 1122 665 10;
#X obj 116 480 osc~;
#X obj 101 253 osc~;
#X obj 116 459 +~;
#X obj 131 333 *~;
#X obj 35 225 sig~;
#X obj 35 198 mtof;
#X obj 117 563 *~;
#X obj 8 7 inlet;
#X obj 146 311 r moddep;
#X obj 35 174 +;
#X obj 101 225 *;
#X obj 386 252 delay 10;
#X obj 352 415 line~;
#X msg 350 253 1 5;
#X obj 386 312 pack 0 0;
#X obj 265 147 bang;
#X obj 242 235 delay 10;
#X obj 204 339 line~;
#X obj 238 123 sel 0;
#X msg 206 235 1 5;
#X obj 242 295 pack 0 0;
#X obj 131 363 *~;
#X obj 431 285 r adecay;
#X obj 287 270 r mdecay;
#X obj 146 412 *~;
#X obj 131 437 +~;
#X obj 191 385 r vibrato;
#X obj 146 385 osc~ 5;
#X obj 66 86 > 0;
#X obj 8 125 *;
#X obj 8 149 sel 0;
#X obj 352 445 *~;
#X obj 323 147 / 127;
#X obj 101 282 *~;
#X obj 348 199 s velamp;
#X obj 396 415 r velamp;
#X obj 135 227 r velamp;
#X obj 135 254 + 1;
#X obj 348 178 max;
#X obj 187 432 noise~;
#X obj 187 452 lop~ 500;
#X obj 117 515 +~;
#X text 307 119 velocity to amplitude;
#X text 356 228 amp envelope;
#X text 219 210 mod envolope;
#X text 112 167 modulator;
#X text 60 480 carrier;
#X obj 187 472 *~ 0.05;
#X text 161 364 vibrato;
#X obj 577 164 s velmod;
#X obj 363 147 r velmod;
#X obj 117 603 outlet~;
#X obj 8 45 unpack 0 0;
#X obj 50 145 r slatra_transpose-\$1;
#X obj 577 57 r slatra_velocity-\$1;
#X obj 577 83 / 100;
#X obj 577 113 * -1;
#X obj 577 139 + 1;
#X obj 709 57 r slatra_ampdecay-\$1;
#X obj 709 92 / 2;
#X obj 709 124 *;
#X obj 709 164 s adecay;
#X obj 840 57 r slatra_vibrato-\$1;
#X obj 572 195 r slatra_moddepth-\$1;
#X obj 840 82 / 5;
#X obj 840 163 s vibrato;
#X obj 572 218 * 40;
#X obj 572 279 s moddep;
#X obj 703 223 / 2;
#X obj 703 255 *;
#X obj 703 195 r slatra_moddecay-\$1;
#X obj 703 280 s mdecay;
#X obj 834 195 r slatra_modscale-\$1;
#X obj 834 219 / 100;
#X obj 834 280 s mscale;
#X obj 116 192 r mscale;
#X obj 326 28 bang;
#X connect 0 0 41 0;
#X connect 1 0 33 0;
#X connect 2 0 0 0;
#X connect 3 0 21 0;
#X connect 4 0 2 0;
#X connect 5 0 4 0;
#X connect 5 0 10 0;
#X connect 6 0 51 0;
#X connect 7 0 52 0;
#X connect 7 0 76 0;
#X connect 8 0 3 1;
#X connect 9 0 5 0;
#X connect 10 0 1 0;
#X connect 11 0 14 0;
#X connect 12 0 31 0;
#X connect 13 0 12 0;
#X connect 14 0 12 0;
#X connect 15 0 19 0;
#X connect 15 0 16 0;
#X connect 15 0 13 0;
#X connect 15 0 11 0;
#X connect 16 0 20 0;
#X connect 17 0 21 1;
#X connect 18 1 15 0;
#X connect 18 1 32 0;
#X connect 19 0 17 0;
#X connect 20 0 17 0;
#X connect 21 0 25 0;
#X connect 22 0 14 1;
#X connect 23 0 20 1;
#X connect 24 0 25 1;
#X connect 25 0 2 1;
#X connect 26 0 24 1;
#X connect 27 0 24 0;
#X connect 28 0 29 1;
#X connect 29 0 30 0;
#X connect 30 1 9 0;
#X connect 31 0 6 1;
#X connect 32 0 38 0;
#X connect 33 0 3 0;
#X connect 35 0 31 1;
#X connect 36 0 37 0;
#X connect 37 0 33 1;
#X connect 38 0 34 0;
#X connect 39 0 40 0;
#X connect 40 0 47 0;
#X connect 41 0 6 0;
#X connect 47 0 41 1;
#X connect 50 0 38 1;
#X connect 52 0 29 0;
#X connect 52 1 18 0;
#X connect 52 1 28 0;
#X connect 53 0 9 1;
#X connect 54 0 55 0;
#X connect 55 0 56 0;
#X connect 56 0 57 0;
#X connect 57 0 49 0;
#X connect 58 0 59 0;
#X connect 59 0 60 0;
#X connect 59 0 60 1;
#X connect 60 0 61 0;
#X connect 62 0 64 0;
#X connect 63 0 66 0;
#X connect 64 0 65 0;
#X connect 66 0 67 0;
#X connect 68 0 69 0;
#X connect 68 0 69 1;
#X connect 69 0 71 0;
#X connect 70 0 68 0;
#X connect 72 0 73 0;
#X connect 73 0 74 0;
#X connect 75 0 10 1;
#X connect 76 0 55 0;
#X connect 76 0 59 0;
#X connect 76 0 64 0;
#X connect 76 0 66 0;
#X connect 76 0 68 0;
#X connect 76 0 73 0;
